<?xml version="1.0" encoding="UTF-8"?>
<svg version="1.1" xmlns="http://www.w3.org/2000/svg" width="1749" height="2481">
<path d="M0 0 C9.13993205 8.60070302 14.02897333 18.28908009 14.5859375 30.8671875 C14.15446431 46.34628832 7.74843628 60.96718933 -0.7265625 73.6796875 C11.20933935 73.64154033 23.14492973 73.58204736 35.08058643 73.49578476 C40.62364141 73.45638383 46.16653927 73.42415912 51.7097168 73.40869141 C57.06564 73.39347623 62.42113106 73.35894443 67.77686119 73.31137848 C69.81359779 73.29661474 71.85039611 73.28864938 73.88718605 73.28780365 C90.96050945 73.57384294 90.96050945 73.57384294 106.0859375 66.4921875 C106.8078125 65.5640625 107.5296875 64.6359375 108.2734375 63.6796875 C108.76328125 63.09960938 109.253125 62.51953125 109.7578125 61.921875 C113.10586674 57.56277468 114.4419352 54.16129711 115.20117188 48.68676758 C116.51524655 39.99296898 116.51524655 39.99296898 120.15478516 37.27441406 C125.95852306 34.24670355 132.67483403 31.6796875 139.2734375 31.6796875 C139.2420166 32.69953735 139.2420166 32.69953735 139.20996094 33.73999023 C139.12603855 36.86556797 139.0745384 39.99090766 139.0234375 43.1171875 C138.97316406 44.72110352 138.97316406 44.72110352 138.921875 46.35742188 C138.81842904 54.81412885 140.148401 61.08589552 145.7734375 67.5546875 C153.800483 73.39164519 165.24859404 73.12727558 174.7109375 73.078125 C175.95286865 73.08099518 177.1947998 73.08386536 178.47436523 73.08682251 C181.08284973 73.08885104 183.69134986 73.0834067 186.29980469 73.07080078 C190.26272012 73.05473096 194.22461579 73.07069226 198.1875 73.08984375 C200.73698139 73.0878611 203.28646215 73.08401699 205.8359375 73.078125 C207.00503662 73.08419769 208.17413574 73.09027039 209.37866211 73.0965271 C218.85416755 73.01663432 228.63433952 71.93935967 236.8359375 66.8046875 C237.62097656 66.33289062 238.40601563 65.86109375 239.21484375 65.375 C241.59931085 63.41132121 242.8342693 61.39249657 244.2734375 58.6796875 C241.16121288 54.86721234 238.09543028 51.42273305 234.3359375 48.2421875 C230.82908061 45.26403613 227.85535844 42.05120669 224.8828125 38.546875 C222.79539555 36.12506601 220.56782394 33.90454707 218.2734375 31.6796875 C222.91483972 16.27023213 234.38305199 1.29129059 245.2734375 -10.3203125 C260.24365167 0.86849809 270.6069247 23.32576821 273.2734375 41.6796875 C276.47375013 65.24904875 271.12401603 89.40739554 256.8359375 108.6796875 C246.0986922 121.37575458 233.37446428 128.02811328 216.87915039 129.46801758 C209.7002319 129.88944911 202.51260728 129.86562022 195.32324219 129.86499023 C192.54346276 129.86717178 189.76408434 129.88536889 186.984375 129.90429688 C166.52159486 129.96975077 148.50625729 128.88517909 133.2734375 113.8046875 C132.26821896 112.76805588 131.26618067 111.72827247 130.2734375 110.6796875 C129.72429687 111.42412109 129.72429687 111.42412109 129.1640625 112.18359375 C120.30831505 123.29544829 108.17032091 127.78514397 94.42810249 129.46630478 C91.16176313 129.78977984 87.92139937 129.80705188 84.64038086 129.80908203 C83.5621682 129.81171051 83.5621682 129.81171051 82.46217346 129.81439209 C80.095851 129.81877154 77.72960443 129.8158767 75.36328125 129.8125 C73.6745248 129.8131764 71.98576845 129.81414921 70.29701233 129.81539917 C66.74218832 129.8168728 63.18738943 129.81474064 59.63256836 129.81005859 C55.2047744 129.80449492 50.77704236 129.80765043 46.34925079 129.81350517 C27.91988246 129.83405913 9.51368178 129.66762368 -8.90788841 129.12574768 C-23.42799112 128.70393291 -37.94305709 128.5529447 -52.46875 128.46875 C-54.70607081 128.4544496 -56.94339076 128.44001458 -59.18070984 128.42544556 C-68.31380262 128.36733348 -77.44685536 128.31134176 -86.58007812 128.27832031 C-92.27267726 128.25723353 -97.96504147 128.22188813 -103.65750504 128.17756271 C-105.78698081 128.16359273 -107.91649753 128.15472433 -110.04601669 128.15150833 C-122.60181671 128.13045559 -134.44458956 127.37275878 -146.7265625 124.6796875 C-146.69372917 126.07886917 -146.69372917 126.07886917 -146.66023254 127.50631714 C-145.91321743 160.90613175 -151.09349823 188.04906283 -174.9140625 213.2421875 C-197.27858612 234.91023806 -226.64869646 243.26657351 -257.33203125 242.82421875 C-278.63859181 241.91703493 -298.11402479 237.29700116 -316.7265625 226.6796875 C-317.59539063 226.18726563 -318.46421875 225.69484375 -319.359375 225.1875 C-335.75149064 215.07807677 -343.89036593 199.80469167 -348.4765625 181.72265625 C-353.02765422 159.12522165 -348.00847954 136.0876763 -340.7265625 114.6796875 C-340.50178223 114.01130859 -340.27700195 113.34292969 -340.04541016 112.65429688 C-337.51442299 105.31308885 -337.51442299 105.31308885 -335.7265625 102.6796875 C-331.31500824 100.76435077 -327.64293311 102.44915718 -323.4140625 104.1171875 C-322.76888672 104.36017578 -322.12371094 104.60316406 -321.45898438 104.85351562 C-319.87724271 105.45106248 -318.30127876 106.06386477 -316.7265625 106.6796875 C-316.8709375 107.74445313 -317.0153125 108.80921875 -317.1640625 109.90625 C-319.5621293 128.29782362 -320.43618289 145.74722086 -309.6640625 161.7421875 C-297.09926351 175.71151084 -275.4329778 178.68169197 -257.7265625 179.6796875 C-233.82322793 179.94993436 -203.65363944 178.35193806 -184.64453125 161.875 C-180.01971366 157.18424815 -177.71724034 152.32638817 -177.7265625 145.6796875 C-178.60093702 139.4056932 -180.62875949 134.13886277 -183.6640625 128.6171875 C-184.05811279 127.88894775 -184.45216309 127.16070801 -184.8581543 126.41040039 C-190.14677417 116.84960758 -196.36944752 107.9070076 -203.12890625 99.33203125 C-203.68731201 98.6160376 -204.24571777 97.90004395 -204.82104492 97.16235352 C-205.89975098 95.7890355 -206.99435734 94.42801383 -208.10668945 93.08178711 C-210.40664454 90.16081758 -211.69069548 88.52256256 -211.8515625 84.7421875 C-210.33437514 80.61206637 -208.3030519 77.03005115 -205.9765625 73.3046875 C-205.49574219 72.52536865 -205.01492188 71.7460498 -204.51953125 70.94311523 C-198.70331447 61.74371225 -191.88277681 51.99040715 -183.7265625 44.6796875 C-183.0665625 44.6796875 -182.4065625 44.6796875 -181.7265625 44.6796875 C-180.46484375 46.1484375 -180.46484375 46.1484375 -179.0390625 48.1796875 C-170.9969457 59.1673507 -160.85611461 69.86381321 -146.7578125 72.1640625 C-143.48944142 71.96086686 -143.48944142 71.96086686 -141.3046875 69.07421875 C-140.50941001 67.89293332 -139.73446911 66.69779071 -138.9765625 65.4921875 C-138.10629265 64.19518555 -137.23384352 62.89964357 -136.359375 61.60546875 C-135.70243652 60.61667725 -135.70243652 60.61667725 -135.03222656 59.60791016 C-120.17304401 37.66366486 -101.16569875 17.22035994 -79.7265625 1.6796875 C-79.17661621 1.26895996 -78.62666992 0.85823242 -78.06005859 0.43505859 C-53.21665682 -18.1155554 -24.61073041 -20.9438021 0 0 Z M-102.5390625 57.8046875 C-103.61190066 59.08778037 -104.67378388 60.38008518 -105.7265625 61.6796875 C-106.81324219 62.98679687 -106.81324219 62.98679687 -107.921875 64.3203125 C-111.97296731 68.5194831 -111.97296731 68.5194831 -113.7265625 73.6796875 C-107.89569799 73.75484737 -102.06512643 73.80875762 -96.23388672 73.84448242 C-94.25759966 73.85940324 -92.28134471 73.87974722 -90.30517578 73.90600586 C-67.61871053 74.19951416 -44.83760797 71.71075117 -26.94140625 56.125 C-25.82295446 55.02212553 -24.76343982 53.85958238 -23.7265625 52.6796875 C-28.34526686 42.73473258 -32.4374026 36.29968595 -42.7265625 31.6796875 C-66.32608438 23.77984755 -87.9299749 41.39858229 -102.5390625 57.8046875 Z " fill="#040404" transform="translate(913.7265625,1084.3203125)"/>
<path d="M0 0 C1.4074909 0.94502961 2.75098869 1.98415928 4.078125 3.0390625 C4.84125 2.3996875 5.604375 1.7603125 6.390625 1.1015625 C10.61626644 -2.14137163 13.85262616 -2.30930409 19.078125 -1.9609375 C23.06111283 -0.69965802 25.38849948 0.14254932 27.953125 3.4765625 C29.8227649 7.73518672 30.20158935 11.25774559 30.19165039 15.90917969 C30.19153709 17.68056305 30.19153709 17.68056305 30.19142151 19.48773193 C30.18626022 20.75763977 30.18109894 22.02754761 30.17578125 23.3359375 C30.1743663 24.63984436 30.17295135 25.94375122 30.17149353 27.28717041 C30.16768367 30.74609305 30.15786651 34.20497341 30.14678955 37.66387939 C30.13654246 41.19648669 30.13198885 44.72910086 30.12695312 48.26171875 C30.11624282 55.18751908 30.09865846 62.1132844 30.078125 69.0390625 C24.468125 69.0390625 18.858125 69.0390625 13.078125 69.0390625 C13.05306885 67.48477539 13.0280127 65.93048828 13.00219727 64.32910156 C12.90807917 58.5666468 12.807869 52.80431134 12.70581055 47.04199219 C12.6624784 44.54722889 12.62080209 42.05243627 12.58081055 39.55761719 C12.52306664 35.97321734 12.45938365 32.3889649 12.39453125 28.8046875 C12.37781876 27.68789612 12.36110626 26.57110474 12.34388733 25.42047119 C12.3139695 23.85930573 12.3139695 23.85930573 12.28344727 22.26660156 C12.26013084 20.89426361 12.26013084 20.89426361 12.23634338 19.49420166 C12.08936897 17.2135398 11.71535314 15.22775665 11.078125 13.0390625 C9.758125 12.7090625 8.438125 12.3790625 7.078125 12.0390625 C6.29236344 15.53294128 5.93374511 18.80193895 5.87280273 22.38012695 C5.85285751 23.4208284 5.83291229 24.46152985 5.81236267 25.5337677 C5.78729393 27.20121284 5.78729393 27.20121284 5.76171875 28.90234375 C5.74093765 30.04946335 5.72015656 31.19658295 5.69874573 32.37846375 C5.63345881 36.03610348 5.57446214 39.69381388 5.515625 43.3515625 C5.47241996 45.83399163 5.42880503 48.31641366 5.38476562 50.79882812 C5.27779874 56.87883417 5.17647248 62.95891117 5.078125 69.0390625 C-0.531875 69.0390625 -6.141875 69.0390625 -11.921875 69.0390625 C-12.251875 50.2290625 -12.581875 31.4190625 -12.921875 12.0390625 C-14.571875 12.6990625 -16.221875 13.3590625 -17.921875 14.0390625 C-18.251875 32.1890625 -18.581875 50.3390625 -18.921875 69.0390625 C-24.861875 69.0390625 -30.801875 69.0390625 -36.921875 69.0390625 C-36.921875 45.9390625 -36.921875 22.8390625 -36.921875 -0.9609375 C-30.981875 -0.9609375 -25.041875 -0.9609375 -18.921875 -0.9609375 C-18.591875 0.0290625 -18.261875 1.0190625 -17.921875 2.0390625 C-17.32375 1.5646875 -16.725625 1.0903125 -16.109375 0.6015625 C-11.28683289 -2.84311043 -5.24573369 -2.62286685 0 0 Z " fill="#0A0A0A" transform="translate(642.921875,1401.9609375)"/>
<path d="M0 0 C5.94 0 11.88 0 18 0 C18 27.39 18 54.78 18 83 C12.06 83 6.12 83 0 83 C-0.495 82.01 -0.495 82.01 -1 81 C-1.55816406 81.48726562 -2.11632812 81.97453125 -2.69140625 82.4765625 C-6.55608004 85.02685485 -10.52485355 84.53033391 -15 84 C-19.24997984 82.28192304 -21.0080784 80.08343928 -23 76 C-23.90004233 73.04095008 -24.13993355 70.35319557 -24.17700195 67.26660156 C-24.18983719 66.33172913 -24.20267242 65.39685669 -24.21589661 64.43365479 C-24.22328354 63.42945496 -24.23067047 62.42525513 -24.23828125 61.390625 C-24.246353 60.34984802 -24.25442474 59.30907104 -24.26274109 58.23675537 C-24.27656328 56.03448137 -24.28729376 53.83218612 -24.29516602 51.62988281 C-24.30668561 49.38372498 -24.32713691 47.13759452 -24.35668945 44.89160156 C-24.39945938 41.64108731 -24.41554878 38.39138607 -24.42578125 35.140625 C-24.44328934 34.14452209 -24.46079742 33.14841919 -24.47883606 32.12213135 C-24.45959657 25.89118568 -23.56668967 21.2000872 -20 16 C-16.7746693 12.97014388 -14.07018403 12.05945467 -9.625 11.8125 C-6 12 -6 12 -1 14 C-0.67 9.38 -0.34 4.76 0 0 Z M-5 26 C-7.52183623 29.78275434 -7.30591551 32.82730119 -7.30078125 37.2109375 C-7.30506638 38.01608795 -7.3093515 38.8212384 -7.31376648 39.65078735 C-7.31950761 41.35377055 -7.32001163 43.05677827 -7.31567383 44.75976562 C-7.31252002 47.3585018 -7.33595315 49.95609259 -7.36132812 52.5546875 C-7.36360184 54.21093607 -7.36430428 55.86718769 -7.36328125 57.5234375 C-7.372491 58.29754974 -7.38170074 59.07166199 -7.39118958 59.86923218 C-7.35228874 64.43273715 -6.75421011 67.32680952 -4 71 C-2.68 70.34 -1.36 69.68 0 69 C0 55.14 0 41.28 0 27 C-1.65 26.67 -3.3 26.34 -5 26 Z " fill="#0B0B0B" transform="translate(969,1388)"/>
<path d="M0 0 C5.94 0 11.88 0 18 0 C18.495 7.92 18.495 7.92 19 16 C20.98 14.68 22.96 13.36 25 12 C30.20499921 11.3493751 33.634442 12.089628 38 15 C42.19185535 20.32478923 43.12795232 24.14193176 43.11352539 30.77832031 C43.11344986 31.9392218 43.11337433 33.10012329 43.11329651 34.29620361 C43.10813522 35.54423767 43.10297394 36.79227173 43.09765625 38.078125 C43.0962413 39.35983582 43.09482635 40.64154663 43.09336853 41.96209717 C43.08955901 45.3618364 43.07974214 48.7615326 43.06866455 52.16125488 C43.05841674 55.633539 43.0538637 59.1058301 43.04882812 62.578125 C43.03811841 69.38543608 43.02053433 76.19271154 43 83 C37.06 83 31.12 83 25 83 C24.67 64.52 24.34 46.04 24 27 C22.68 27 21.36 27 20 27 C18.73406561 29.53186878 18.84081806 31.34974791 18.79467773 34.18408203 C18.77473251 35.26505157 18.75478729 36.34602112 18.73423767 37.45974731 C18.70916893 39.21603958 18.70916893 39.21603958 18.68359375 41.0078125 C18.66281265 42.20356903 18.64203156 43.39932556 18.62062073 44.63131714 C18.55507711 48.46248464 18.49621782 52.29372238 18.4375 56.125 C18.39431937 58.71745527 18.35070523 61.30990336 18.30664062 63.90234375 C18.19939077 70.26815663 18.09813688 76.63404037 18 83 C12.06 83 6.12 83 0 83 C0 55.61 0 28.22 0 0 Z " fill="#0D0D0D" transform="translate(994,1388)"/>
<path d="M0 0 C5.61 0 11.22 0 17 0 C17 27.39 17 54.78 17 83 C11.39 83 5.78 83 0 83 C-0.33 82.01 -0.66 81.02 -1 80 C-1.6496875 80.99 -1.6496875 80.99 -2.3125 82 C-5.9915682 84.73791122 -8.80317858 84.61916112 -13.30078125 84.45703125 C-17.55523494 83.73666789 -19.15362034 82.21130013 -22 79 C-25.7754093 73.42677674 -25.17111588 66.01650966 -25.203125 59.54296875 C-25.20882507 58.64056961 -25.21452515 57.73817047 -25.22039795 56.8084259 C-25.2298132 54.90476644 -25.23636806 53.00109093 -25.24023438 51.09741211 C-25.2499338 48.20722608 -25.28098774 45.31775368 -25.3125 42.42773438 C-25.31903191 40.57031668 -25.32428165 38.71289395 -25.328125 36.85546875 C-25.3404718 36.00204391 -25.3528186 35.14861908 -25.36553955 34.26933289 C-25.34300436 28.10577049 -24.79397058 21.21361988 -20.58331299 16.37052917 C-15.90158097 12.31798216 -12.07152032 11.58127446 -6 12 C-4.35 12.99 -2.7 13.98 -1 15 C-0.67 10.05 -0.34 5.1 0 0 Z M-6 26 C-8.13798699 28.13798699 -7.16423028 32.99705509 -7.16796875 35.9609375 C-7.17129715 36.86244537 -7.17462555 37.76395325 -7.17805481 38.69277954 C-7.18312848 40.60442595 -7.185463 42.51608124 -7.18530273 44.42773438 C-7.18748555 47.35561734 -7.2056264 50.28312147 -7.22460938 53.2109375 C-7.22754391 55.06510287 -7.2295283 56.91927004 -7.23046875 58.7734375 C-7.23765427 59.65164154 -7.24483978 60.52984558 -7.25224304 61.43466187 C-7.24916641 62.25205841 -7.24608978 63.06945496 -7.24291992 63.91162109 C-7.24434494 64.63030365 -7.24576996 65.34898621 -7.24723816 66.08944702 C-7.10098285 68.32880075 -7.10098285 68.32880075 -5 71 C-3.01508358 70.73323796 -3.01508358 70.73323796 -1 70 C0.2823919 66.15282431 0.16243489 62.50961796 0.16796875 58.5 C0.17296135 57.25186523 0.17296135 57.25186523 0.17805481 55.97851562 C0.18311508 54.2200577 0.18546341 52.46159019 0.18530273 50.703125 C0.18749166 48.01025652 0.20566335 45.31779613 0.22460938 42.625 C0.22754297 40.91666807 0.22952799 39.20833419 0.23046875 37.5 C0.23765427 36.69369141 0.24483978 35.88738281 0.25224304 35.05664062 C0.23635444 31.17888558 0.20115038 29.30172557 -2 26 C-3.32 26 -4.64 26 -6 26 Z " fill="#090909" transform="translate(753,1388)"/>
<path d="M0 0 C5.94 0 11.88 0 18 0 C18.33 9.9 18.66 19.8 19 30 C20.98 24.39 22.96 18.78 25 13 C30.94 13 36.88 13 43 13 C41.68821006 18.17428253 40.3207639 23.24085654 38.4296875 28.234375 C38.15398926 28.96986572 37.87829102 29.70535645 37.59423828 30.46313477 C37.04233925 31.91725624 36.47614213 33.36605201 35.89404297 34.80834961 C35.63510254 35.49421143 35.37616211 36.18007324 35.109375 36.88671875 C34.87186523 37.48701904 34.63435547 38.08731934 34.38964844 38.70581055 C33.33757915 44.90023101 35.42181269 50.94177637 37.50390625 56.7109375 C37.7466478 57.40514801 37.98938934 58.09935852 38.23948669 58.81460571 C39.0063329 61.00412724 39.78375527 63.18968532 40.5625 65.375 C41.34306088 67.58230211 42.12131922 69.79037048 42.89622498 71.99966431 C43.37664656 73.36764069 43.86062551 74.73437408 44.348526 76.09970093 C46 80.77778509 46 80.77778509 46 83 C39.73 83 33.46 83 27 83 C24.36 74.75 21.72 66.5 19 58 C18.67 66.25 18.34 74.5 18 83 C12.06 83 6.12 83 0 83 C0 55.61 0 28.22 0 0 Z " fill="#0E0E0E" transform="translate(1091,1388)"/>
<path d="M0 0 C3.51350718 1.84570314 5.62092761 4.07554227 7.14596558 7.79470825 C8.01414343 11.05308197 8.24148907 13.73304605 8.22705078 17.09716797 C8.22689972 18.27793915 8.22674866 19.45871033 8.22659302 20.67526245 C8.21627045 21.93484772 8.20594788 23.19443298 8.1953125 24.4921875 C8.1924826 25.79326447 8.18965271 27.09434143 8.18673706 28.43484497 C8.17913675 31.8773582 8.15951973 35.31970003 8.1373291 38.762146 C8.11679261 42.28151125 8.10771873 45.80090447 8.09765625 49.3203125 C8.07626999 56.21361875 8.04111765 63.10678348 8 70 C2.39 70 -3.22 70 -9 70 C-9.33 51.19 -9.66 32.38 -10 13 C-11.65 13.33 -13.3 13.66 -15 14 C-16.05757848 20.13847151 -16.21602741 26.18178915 -16.31640625 32.40234375 C-16.33718735 33.48004532 -16.35796844 34.55774689 -16.37937927 35.66810608 C-16.44446161 39.09117612 -16.50356673 42.51431912 -16.5625 45.9375 C-16.60572455 48.26628341 -16.64934007 50.5950596 -16.69335938 52.92382812 C-16.80010039 58.61581175 -16.90148295 64.30786834 -17 70 C-22.61 70 -28.22 70 -34 70 C-34 46.9 -34 23.8 -34 0 C-28.39 0 -22.78 0 -17 0 C-16.67 1.65 -16.34 3.3 -16 5 C-15.401875 4.195625 -14.80375 3.39125 -14.1875 2.5625 C-10.21953206 -2.08569101 -5.52292924 -1.36659512 0 0 Z " fill="#070707" transform="translate(907,1401)"/>
<path d="M0 0 C6.26041371 6.43928268 5.58868544 13.94092476 5.48046875 22.40234375 C5.47622391 23.65761368 5.47197906 24.91288361 5.46760559 26.20619202 C5.45370628 29.52229337 5.42681502 32.83776052 5.39349365 36.15368652 C5.3626492 39.5457617 5.34906975 42.93790274 5.33398438 46.33007812 C5.30097627 52.97024808 5.2492244 59.61003739 5.1875 66.25 C-0.7525 66.25 -6.6925 66.25 -12.8125 66.25 C-13.1425 65.26 -13.4725 64.27 -13.8125 63.25 C-14.451875 63.91 -15.09125 64.57 -15.75 65.25 C-19.86068198 67.93452701 -23.02805107 67.96331784 -27.8125 67.25 C-32.0394152 65.50410024 -33.82445538 63.32549148 -35.8125 59.25 C-37.97635563 51.87019243 -38.45005302 40.68734612 -35.3125 33.5 C-30.61321975 26.16453815 -21.60905692 23.88133796 -13.8125 21.25 C-13.8125 17.29 -13.8125 13.33 -13.8125 9.25 C-15.1325 9.58 -16.4525 9.91 -17.8125 10.25 C-18.0290625 11.9515625 -18.0290625 11.9515625 -18.25 13.6875 C-18.8125 17.25 -18.8125 17.25 -19.8125 18.25 C-22.50904854 18.32319621 -25.17941458 18.34242537 -27.875 18.3125 C-28.63361328 18.30798828 -29.39222656 18.30347656 -30.17382812 18.29882812 C-32.05341871 18.2870068 -33.93296899 18.26907078 -35.8125 18.25 C-36.32622233 11.28620845 -35.87161375 6.07883116 -31.8125 0.25 C-23.48740404 -8.36216823 -9.06654157 -5.64140364 0 0 Z M-16.35546875 31.671875 C-19.47353092 34.94360955 -19.33986403 36.63961895 -19.25195312 41 C-19.21005859 41.825 -19.16816406 42.65 -19.125 43.5 C-19.10244141 44.34046875 -19.07988281 45.1809375 -19.05664062 46.046875 C-18.99787714 48.11534964 -18.90819885 50.18290488 -18.8125 52.25 C-16.8325 53.24 -16.8325 53.24 -14.8125 54.25 C-12.59379007 52.45290436 -12.59379007 52.45290436 -12.58544922 50.00341797 C-12.59592285 49.09221191 -12.60639648 48.18100586 -12.6171875 47.2421875 C-12.62363281 46.25605469 -12.63007812 45.26992187 -12.63671875 44.25390625 C-12.65347656 43.22136719 -12.67023437 42.18882813 -12.6875 41.125 C-12.69652344 40.08472656 -12.70554687 39.04445313 -12.71484375 37.97265625 C-12.73846253 35.39820908 -12.77139851 32.82421788 -12.8125 30.25 C-14.15261053 30.16866138 -14.15261053 30.16866138 -16.35546875 31.671875 Z " fill="#0E0E0E" transform="translate(716.8125,1404.75)"/>
<path d="M0 0 C4.39355367 4.06403714 5.80586364 8.91221763 6.1729126 14.75021362 C6.23107796 18.07360646 6.22471437 21.39107025 6.1953125 24.71484375 C6.1924826 25.92572159 6.18965271 27.13659943 6.18673706 28.38417053 C6.1755803 32.23538268 6.15048355 36.08635864 6.125 39.9375 C6.1149644 42.55533517 6.10583956 45.17317401 6.09765625 47.79101562 C6.07565563 54.19410083 6.04115642 60.59701042 6 67 C0.06 67 -5.88 67 -12 67 C-12.33 66.01 -12.66 65.02 -13 64 C-13.928125 64.99 -13.928125 64.99 -14.875 66 C-19.25156686 68.80100279 -22.93258222 68.93240487 -28 68 C-31.52350625 66.30669945 -33.54991298 64.0239093 -35.13671875 60.4140625 C-36.24096247 56.04705341 -36.32994135 51.98591444 -36.3125 47.5 C-36.32861328 46.67113281 -36.34472656 45.84226562 -36.36132812 44.98828125 C-36.36645345 38.54062183 -35.10914229 34.33715767 -30.6875 29.4375 C-25.70773642 25.51482178 -18.94868855 23.91498878 -13 22 C-13 18.7 -13 15.4 -13 12 C-14.32 11.67 -15.64 11.34 -17 11 C-17.2165625 12.7015625 -17.2165625 12.7015625 -17.4375 14.4375 C-18 18 -18 18 -19 19 C-21.69654854 19.07319621 -24.36691458 19.09242537 -27.0625 19.0625 C-27.82111328 19.05798828 -28.57972656 19.05347656 -29.36132812 19.04882812 C-31.24091871 19.0370068 -33.12046899 19.01907078 -35 19 C-35.573973 7.05285837 -35.573973 7.05285837 -32 2 C-23.30740463 -6.69259537 -10.05366616 -5.63447224 0 0 Z M-18 35 C-19.12050151 38.36150452 -19.13296652 40.96286726 -19.125 44.5 C-19.12757812 45.6446875 -19.13015625 46.789375 -19.1328125 47.96875 C-19.13684408 51.04679859 -19.13684408 51.04679859 -18 54 C-15.98491642 54.73323796 -15.98491642 54.73323796 -14 55 C-11.83073341 51.74610012 -11.75919951 50.86604043 -11.8046875 47.11328125 C-11.81113281 46.17548828 -11.81757812 45.23769531 -11.82421875 44.27148438 C-11.84097656 43.29501953 -11.85773438 42.31855469 -11.875 41.3125 C-11.88402344 40.32443359 -11.89304687 39.33636719 -11.90234375 38.31835938 C-11.9259157 35.87866235 -11.95881978 33.43945303 -12 31 C-14.31649923 31 -16.37700297 33.5798776 -18 35 Z " fill="#0E0E0E" transform="translate(1175,1404)"/>
<path d="M0 0 C4.39355367 4.06403714 5.80586364 8.91221763 6.1729126 14.75021362 C6.23107796 18.07360646 6.22471437 21.39107025 6.1953125 24.71484375 C6.1924826 25.92572159 6.18965271 27.13659943 6.18673706 28.38417053 C6.1755803 32.23538268 6.15048355 36.08635864 6.125 39.9375 C6.1149644 42.55533517 6.10583956 45.17317401 6.09765625 47.79101562 C6.07565563 54.19410083 6.04115642 60.59701042 6 67 C0.06 67 -5.88 67 -12 67 C-12.33 66.01 -12.66 65.02 -13 64 C-13.928125 64.99 -13.928125 64.99 -14.875 66 C-19.25156686 68.80100279 -22.93258222 68.93240487 -28 68 C-31.52350625 66.30669945 -33.54991298 64.0239093 -35.13671875 60.4140625 C-36.24096247 56.04705341 -36.32994135 51.98591444 -36.3125 47.5 C-36.32861328 46.67113281 -36.34472656 45.84226562 -36.36132812 44.98828125 C-36.36645345 38.54062183 -35.10914229 34.33715767 -30.6875 29.4375 C-25.70773642 25.51482178 -18.94868855 23.91498878 -13 22 C-13 18.7 -13 15.4 -13 12 C-14.32 11.67 -15.64 11.34 -17 11 C-17.2165625 12.7015625 -17.2165625 12.7015625 -17.4375 14.4375 C-18 18 -18 18 -19 19 C-21.69654854 19.07319621 -24.36691458 19.09242537 -27.0625 19.0625 C-27.82111328 19.05798828 -28.57972656 19.05347656 -29.36132812 19.04882812 C-31.24091871 19.0370068 -33.12046899 19.01907078 -35 19 C-35.573973 7.05285837 -35.573973 7.05285837 -32 2 C-23.30740463 -6.69259537 -10.05366616 -5.63447224 0 0 Z M-18 35 C-19.12050151 38.36150452 -19.13296652 40.96286726 -19.125 44.5 C-19.12757812 45.6446875 -19.13015625 46.789375 -19.1328125 47.96875 C-19.13684408 51.04679859 -19.13684408 51.04679859 -18 54 C-15.98491642 54.73323796 -15.98491642 54.73323796 -14 55 C-11.83073341 51.74610012 -11.75919951 50.86604043 -11.8046875 47.11328125 C-11.81113281 46.17548828 -11.81757812 45.23769531 -11.82421875 44.27148438 C-11.84097656 43.29501953 -11.85773438 42.31855469 -11.875 41.3125 C-11.88402344 40.32443359 -11.89304687 39.33636719 -11.90234375 38.31835938 C-11.9259157 35.87866235 -11.95881978 33.43945303 -12 31 C-14.31649923 31 -16.37700297 33.5798776 -18 35 Z " fill="#0E0E0E" transform="translate(1079,1404)"/>
<path d="M0 0 C3.92832255 3.62021882 6.8665291 7.00939084 7.11352539 12.54370117 C7.10828857 13.53345947 7.10305176 14.52321777 7.09765625 15.54296875 C7.09515869 16.51000732 7.09266113 17.4770459 7.09008789 18.47338867 C7.08098389 19.69904541 7.07187988 20.92470215 7.0625 22.1875 C7.041875 26.085625 7.02125 29.98375 7 34 C-0.92 34 -8.84 34 -17 34 C-16.67 40.6 -16.34 47.2 -16 54 C-14.68 54.33 -13.36 54.66 -12 55 C-10.58365167 52.16730334 -10.6536995 49.52533562 -10.4375 46.375 C-10.293125 44.27125 -10.14875 42.1675 -10 40 C-4.39 40 1.22 40 7 40 C7.56871935 58.00944621 7.56871935 58.00944621 2.34765625 63.84765625 C-3.86878892 69.40697191 -10.00373795 69.51028475 -18.02734375 69.3359375 C-23.18503556 68.8997905 -26.49226462 67.8501792 -30 64 C-34.60475525 57.26265898 -35.15952362 50.48592061 -35.203125 42.48046875 C-35.20882507 41.66306717 -35.21452515 40.84566559 -35.22039795 40.00349426 C-35.22981841 38.27797732 -35.23637015 36.55244263 -35.24023438 34.8269043 C-35.24992954 32.20654429 -35.28097612 29.58697278 -35.3125 26.96679688 C-35.31903222 25.28385878 -35.32428183 23.60091513 -35.328125 21.91796875 C-35.3404718 21.14374069 -35.3528186 20.36951263 -35.36553955 19.57182312 C-35.34095967 13.47786823 -34.27264204 7.91393212 -30.421875 2.9765625 C-21.99133838 -3.83877785 -9.63103982 -5.91886173 0 0 Z M-16 11 C-17.44207941 13.88415883 -17.09394887 16.41721528 -17.0625 19.625 C-17.05347656 20.81351563 -17.04445313 22.00203125 -17.03515625 23.2265625 C-17.02355469 24.14179687 -17.01195312 25.05703125 -17 26 C-14.69 26 -12.38 26 -10 26 C-9.94593878 24.06280622 -9.90717975 22.12518079 -9.875 20.1875 C-9.85179687 19.10855469 -9.82859375 18.02960938 -9.8046875 16.91796875 C-9.76976283 13.80597132 -9.76976283 13.80597132 -12 11 C-13.32 11 -14.64 11 -16 11 Z " fill="#0C0C0C" transform="translate(812,1403)"/>
<path d="M0 0 C2.57705503 1.28852751 2.67769971 2.24163966 3.69140625 4.89453125 C3.99626953 5.68537109 4.30113281 6.47621094 4.61523438 7.29101562 C5.08413086 8.53915039 5.08413086 8.53915039 5.5625 9.8125 C5.87896484 10.63298828 6.19542969 11.45347656 6.52148438 12.29882812 C8.94007409 18.63029548 8.94007409 18.63029548 9.34741211 21.14331055 C9.83223284 23.18371375 9.83223284 23.18371375 11.90356445 24.04223633 C12.94130005 24.51632935 12.94130005 24.51632935 14 25 C15.30541992 26.55737305 15.30541992 26.55737305 16.54296875 28.32421875 C20.50127128 33.129217 25.59353057 34.7332117 31.3125 36.8125 C33.31075774 37.56327579 35.3069801 38.31949913 37.30078125 39.08203125 C38.17903564 39.40405518 39.05729004 39.7260791 39.9621582 40.05786133 C42 41 42 41 43 43 C42.40574219 43.21092285 41.81148437 43.4218457 41.19921875 43.63916016 C38.46083422 44.62027265 35.73060244 45.62244236 33 46.625 C32.06542969 46.95628906 31.13085938 47.28757812 30.16796875 47.62890625 C22.12661136 50.60926948 14.6789212 54.54424078 10 62 C8.25832431 65.88006639 6.74326506 69.8312705 5.25 73.8125 C4.63318359 75.42415039 4.63318359 75.42415039 4.00390625 77.06835938 C2.99448995 79.7092741 1.99351291 82.35307044 1 85 C-1.14705751 82.85294249 -1.74072398 81.44692189 -2.8046875 78.640625 C-3.30935547 77.33738281 -3.30935547 77.33738281 -3.82421875 76.0078125 C-4.51855075 74.18551365 -5.21128885 72.36260661 -5.90234375 70.5390625 C-9.64841177 60.88189856 -14.02063264 54.262776 -23.61328125 49.77832031 C-26.3885463 48.65859704 -29.17944181 47.62483925 -32 46.625 C-32.96550781 46.27050781 -33.93101562 45.91601562 -34.92578125 45.55078125 C-37.27976531 44.68843065 -39.63745594 43.8385494 -42 43 C-42 42.34 -42 41.68 -42 41 C-40.80246094 40.66871094 -39.60492187 40.33742188 -38.37109375 39.99609375 C-24.93360014 35.90744655 -13.53366131 29.36156221 -6.70214844 16.56982422 C-4.38655345 11.50211996 -2.6671989 6.30902344 -1 1 C-0.67 0.67 -0.34 0.34 0 0 Z " fill="#0A0A0A" transform="translate(987,1221)"/>
<path d="M0 0 C10.82991892 3.38434966 21.77492928 14.43872205 27.1875 24.1875 C27.79785675 25.45537198 28.40317297 26.72570324 29 28 C24.35393676 33.01941647 19.68775932 38.01949646 15 43 C14.51096191 43.52062012 14.02192383 44.04124023 13.51806641 44.57763672 C12.31322315 45.85248204 11.09473881 47.11439892 9.875 48.375 C9.21242188 49.06335937 8.54984375 49.75171875 7.8671875 50.4609375 C5.88193711 52.09731543 4.51761036 52.60837172 2 53 C1.00419922 51.89591797 1.00419922 51.89591797 -0.01171875 50.76953125 C-0.89472656 49.79371094 -1.77773437 48.81789063 -2.6875 47.8125 C-3.99267578 46.36810547 -3.99267578 46.36810547 -5.32421875 44.89453125 C-9.42347388 40.46015453 -13.70334009 36.29320621 -18.1875 32.25 C-19.04730469 31.47140625 -19.90710937 30.6928125 -20.79296875 29.890625 C-22.84981229 27.97415522 -22.84981229 27.97415522 -25 27 C-25 26.34 -25 25.68 -25 25 C-23.54663086 23.56567383 -23.54663086 23.56567383 -21.52734375 21.89453125 C-16.98501456 18.03099845 -12.76561286 13.91411582 -8.5625 9.6875 C-7.84384766 8.97271484 -7.12519531 8.25792969 -6.38476562 7.52148438 C-5.70220703 6.83763672 -5.01964844 6.15378906 -4.31640625 5.44921875 C-3.70224854 4.83393311 -3.08809082 4.21864746 -2.45532227 3.5847168 C-0.90829075 2.04624733 -0.90829075 2.04624733 0 0 Z " fill="#090909" transform="translate(1117,1018)"/>
<path d="M0 0 C10.45085147 4.64482288 23.70990751 15.03151611 28 26 C27.53209246 29.42000278 26.24554383 31.1680561 23.90234375 33.64453125 C23.26490234 34.32193359 22.62746094 34.99933594 21.97070312 35.69726562 C21.29974609 36.39529297 20.62878906 37.09332031 19.9375 37.8125 C19.29361328 38.49892578 18.64972656 39.18535156 17.98632812 39.89257812 C13.56153081 44.55559983 8.90825877 48.85099388 4 53 C1.00959266 51.67294871 -0.90469303 50.28552125 -3.06640625 47.83984375 C-3.62956543 47.21489014 -4.19272461 46.58993652 -4.77294922 45.94604492 C-5.36350098 45.2832251 -5.95405273 44.62040527 -6.5625 43.9375 C-11.72869779 38.24215171 -16.94387603 33.2830909 -23.0859375 28.63671875 C-23.71757813 28.09660156 -24.34921875 27.55648437 -25 27 C-25 26.34 -25 25.68 -25 25 C-23.70703125 23.73046875 -23.70703125 23.73046875 -21.8125 22.1875 C-17.77337788 18.75533004 -13.9969844 15.11881748 -10.25 11.375 C-9.69546143 10.82481201 -9.14092285 10.27462402 -8.56958008 9.70776367 C-5.49128289 6.61923804 -2.65667304 3.46915071 0 0 Z " fill="#090909" transform="translate(867,995)"/>
<path d="M0 0 C5.61 0 11.22 0 17 0 C17 23.1 17 46.2 17 70 C11.39 70 5.78 70 0 70 C0 46.9 0 23.8 0 0 Z " fill="#030303" transform="translate(849,1401)"/>
<path d="M0 0 C5.61 0 11.22 0 17 0 C17 3.96 17 7.92 17 12 C11.39 12 5.78 12 0 12 C0 8.04 0 4.08 0 0 Z " fill="#030303" transform="translate(849,1384)"/>
</svg>
